ffmpeg started on 2025-06-23 at 20:44:43
Report written to "D:\Convert\FFMetrics\reports\ssim_report-6.txt"
Log level: 32
Command line:
ffmpeg -hide_banner -nostdin -i "G:\\\xc0\xed\xe8\xec\xe5\\[\xd2\xee\xef-4]\\\xcc\xee\xe6\xe5\xf2, \xff \xe2\xf1\xf2\xf0\xe5\xf7\xf3 \xf2\xe5\xe1\xff \xe2 \xef\xee\xe4\xe7\xe5\xec\xe5\xeb\xfc\xe5\\\xd2\xc2-1\\DanMachi_[13]_[AniLibria_TV]_[HDTVRip_720p]_HEVC.mkv" -i "G:\\\xc0\xed\xe8\xec\xe5\\[\xd2\xee\xef-4]\\\xcc\xee\xe6\xe5\xf2, \xff \xe2\xf1\xf2\xf0\xe5\xf7\xf3 \xf2\xe5\xe1\xff \xe2 \xef\xee\xe4\xe7\xe5\xec\xe5\xeb\xfc\xe5\\\xd2\xc2-1\\DanMachi_[13]_[AniLibria_TV]_[HDTVRip_720p].mkv" -lavfi "[0:v]settb=AVTB,setpts=PTS-STARTPTS,format=pix_fmts=yuv420p10,fps=24000/1001,scale=1280:720:flags=bicubic[main];[1:v]settb=AVTB,setpts=PTS-STARTPTS,format=pix_fmts=yuv420p,fps=24000/1001,scale=1280:720:flags=bicubic[ref];[main][ref]ssim=eof_action=endall:stats_file='D\\:/Convert/FFMetrics/logs/ssim_logfile-6.txt'" -f null -
Input #0, matroska,webm, from 'G:\Аниме\[Топ-4]\Может, я встречу тебя в подземелье\ТВ-1\DanMachi_[13]_[AniLibria_TV]_[HDTVRip_720p]_HEVC.mkv':
  Metadata:
    ENCODER         : Lavf61.7.100
  Duration: 00:23:41.72, start: -0.021000, bitrate: 765 kb/s
  Stream #0:0(jpn): Video: hevc (Main 10), yuv420p10le(tv, bt709, progressive), 1280x720 [SAR 1:1 DAR 16:9], 23.98 fps, 23.98 tbr, 1k tbn (default) (forced)
      Metadata:
        title           : Original
        ENCODER         : Lavc61.19.100 libx265
        BPS             : 568224
        DURATION        : 00:23:41.671708375
        NUMBER_OF_FRAMES: 34086
        NUMBER_OF_BYTES : 100978567
        _STATISTICS_WRITING_APP: mkvpropedit v66.0.0 ('Josie') 64-bit
        _STATISTICS_WRITING_DATE_UTC: 2025-06-23 09:35:39
        _STATISTICS_TAGS: BPS DURATION NUMBER_OF_FRAMES NUMBER_OF_BYTES
  Stream #0:1(rus): Audio: aac (LC), 48000 Hz, stereo, fltp (default) (forced)
      Metadata:
        title           : Metacarmex & Say
        ENCODER         : Lavc61.19.100 aac
        BPS             : 193183
        DURATION        : 00:23:41.695000000
        NUMBER_OF_FRAMES: 66643
        NUMBER_OF_BYTES : 34330997
        _STATISTICS_WRITING_APP: mkvpropedit v66.0.0 ('Josie') 64-bit
        _STATISTICS_WRITING_DATE_UTC: 2025-06-23 09:35:39
        _STATISTICS_TAGS: BPS DURATION NUMBER_OF_FRAMES NUMBER_OF_BYTES
  Stream #0:2(rus): Subtitle: ass (ssa) (default) (forced)
      Metadata:
        title           : Надписи
        BPS             : 4
        DURATION        : 00:17:05.030000000
        NUMBER_OF_FRAMES: 3
        NUMBER_OF_BYTES : 556
        _STATISTICS_WRITING_APP: mkvpropedit v66.0.0 ('Josie') 64-bit
        _STATISTICS_WRITING_DATE_UTC: 2025-06-23 09:35:39
        _STATISTICS_TAGS: BPS DURATION NUMBER_OF_FRAMES NUMBER_OF_BYTES
  Stream #0:3(rus): Subtitle: ass (ssa)
      Metadata:
        title           : Полные [Vaisiliok]
        BPS             : 87
        DURATION        : 00:23:33.280000000
        NUMBER_OF_FRAMES: 251
        NUMBER_OF_BYTES : 15411
        _STATISTICS_WRITING_APP: mkvpropedit v66.0.0 ('Josie') 64-bit
        _STATISTICS_WRITING_DATE_UTC: 2025-06-23 09:35:39
        _STATISTICS_TAGS: BPS DURATION NUMBER_OF_FRAMES NUMBER_OF_BYTES
Input #1, matroska,webm, from 'G:\Аниме\[Топ-4]\Может, я встречу тебя в подземелье\ТВ-1\DanMachi_[13]_[AniLibria_TV]_[HDTVRip_720p].mkv':
  Metadata:
    encoder         : libebml v1.4.2 + libmatroska v1.6.4
    creation_time   : 2025-01-14T16:50:20.000000Z
  Duration: 00:23:41.70, start: 0.000000, bitrate: 1972 kb/s
  Stream #1:0(jpn): Video: h264 (High), yuv420p(progressive), 1280x720, SAR 1:1 DAR 16:9, 23.98 fps, 23.98 tbr, 1k tbn (default) (forced)
      Metadata:
        title           : Original
        BPS             : 1774615
        DURATION        : 00:23:41.672000000
        NUMBER_OF_FRAMES: 34086
        NUMBER_OF_BYTES : 315365188
        _STATISTICS_WRITING_APP: mkvmerge v66.0.0 ('Josie') 64-bit
        _STATISTICS_WRITING_DATE_UTC: 2025-01-14 16:50:20
        _STATISTICS_TAGS: BPS DURATION NUMBER_OF_FRAMES NUMBER_OF_BYTES
  Stream #1:1(rus): Audio: aac (LC), 48000 Hz, stereo, fltp (default) (forced)
      Metadata:
        title           : Metacarmex & Say
        BPS             : 192088
        DURATION        : 00:23:41.695000000
        NUMBER_OF_FRAMES: 66642
        NUMBER_OF_BYTES : 34136439
        _STATISTICS_WRITING_APP: mkvmerge v66.0.0 ('Josie') 64-bit
        _STATISTICS_WRITING_DATE_UTC: 2025-01-14 16:50:20
        _STATISTICS_TAGS: BPS DURATION NUMBER_OF_FRAMES NUMBER_OF_BYTES
  Stream #1:2(rus): Subtitle: ass (ssa) (default) (forced)
      Metadata:
        title           : Надписи
        BPS             : 4
        DURATION        : 00:17:05.030000000
        NUMBER_OF_FRAMES: 3
        NUMBER_OF_BYTES : 556
        _STATISTICS_WRITING_APP: mkvmerge v66.0.0 ('Josie') 64-bit
        _STATISTICS_WRITING_DATE_UTC: 2025-01-14 16:50:20
        _STATISTICS_TAGS: BPS DURATION NUMBER_OF_FRAMES NUMBER_OF_BYTES
  Stream #1:3(rus): Subtitle: ass (ssa)
      Metadata:
        title           : Полные [Vaisiliok]
        BPS             : 87
        DURATION        : 00:23:33.280000000
        NUMBER_OF_FRAMES: 251
        NUMBER_OF_BYTES : 15411
        _STATISTICS_WRITING_APP: mkvmerge v66.0.0 ('Josie') 64-bit
        _STATISTICS_WRITING_DATE_UTC: 2025-01-14 16:50:20
        _STATISTICS_TAGS: BPS DURATION NUMBER_OF_FRAMES NUMBER_OF_BYTES
  Stream #1:4: Attachment: ttf
      Metadata:
        filename        : ChinaCyr.ttf
        mimetype        : application/x-truetype-font
  Stream #1:5: Attachment: ttf
      Metadata:
        filename        : TkhO4vNj.ttf
        mimetype        : application/x-truetype-font
  Stream #1:6: Attachment: ttf
      Metadata:
        filename        : bonzai.ttf
        mimetype        : application/x-truetype-font
  Stream #1:7: Attachment: ttf
      Metadata:
        filename        : OpenSans-Semibold.ttf
        mimetype        : application/x-truetype-font
Stream mapping:
  Stream #0:0 (hevc) -> settb:default
  Stream #1:0 (h264) -> settb:default
  ssim:default -> Stream #0:0 (wrapped_avframe)
  Stream #0:1 -> #0:1 (aac (native) -> pcm_s16le (native))
[swscaler @ 0000023e7b69a200] No accelerated colorspace conversion found from yuv420p to bgr48le.
[swscaler @ 0000023e7b717080] No accelerated colorspace conversion found from yuv420p to bgr48le.
[swscaler @ 0000023e7b7b4680] No accelerated colorspace conversion found from yuv420p to bgr48le.
[swscaler @ 0000023e7b86dec0] No accelerated colorspace conversion found from yuv420p to bgr48le.
[swscaler @ 0000023e7b9c1700] No accelerated colorspace conversion found from yuv420p to bgr48le.
[swscaler @ 0000023e7bb78f40] No accelerated colorspace conversion found from yuv420p to bgr48le.
[swscaler @ 0000023e7bcc6cc0] No accelerated colorspace conversion found from yuv420p to bgr48le.
[swscaler @ 0000023e7bd65280] No accelerated colorspace conversion found from yuv420p to bgr48le.
[swscaler @ 0000023e7be8d040] No accelerated colorspace conversion found from yuv420p to bgr48le.
[swscaler @ 0000023e7bff6bc0] No accelerated colorspace conversion found from yuv420p to bgr48le.
[swscaler @ 0000023e0007a7c0] No accelerated colorspace conversion found from yuv420p to bgr48le.
[swscaler @ 0000023e000d8040] No accelerated colorspace conversion found from yuv420p to bgr48le.
[swscaler @ 0000023e00155040] No accelerated colorspace conversion found from yuv420p to bgr48le.
[swscaler @ 0000023e001b3040] No accelerated colorspace conversion found from yuv420p to bgr48le.
[swscaler @ 0000023e00210040] No accelerated colorspace conversion found from yuv420p to bgr48le.
[swscaler @ 0000023e0022a000] No accelerated colorspace conversion found from yuv420p to bgr48le.
Output #0, null, to 'pipe:':
  Metadata:
    encoder         : Lavf61.7.100
  Stream #0:0: Video: wrapped_avframe, yuv420p10le(tv, bt709, progressive), 1280x720 [SAR 1:1 DAR 16:9], q=2-31, 200 kb/s, 23.98 fps, 23.98 tbn
      Metadata:
        encoder         : Lavc61.19.100 wrapped_avframe
  Stream #0:1(rus): Audio: pcm_s16le, 48000 Hz, stereo, s16, 1536 kb/s (default) (forced)
      Metadata:
        title           : Metacarmex & Say
        _STATISTICS_TAGS: BPS DURATION NUMBER_OF_FRAMES NUMBER_OF_BYTES
        BPS             : 193183
        DURATION        : 00:23:41.695000000
        NUMBER_OF_FRAMES: 66643
        NUMBER_OF_BYTES : 34330997
        _STATISTICS_WRITING_APP: mkvpropedit v66.0.0 ('Josie') 64-bit
        _STATISTICS_WRITING_DATE_UTC: 2025-06-23 09:35:39
        encoder         : Lavc61.19.100 pcm_s16le
frame=   86 fps=0.0 q=-0.0 size=N/A time=00:00:03.58 bitrate=N/A speed=6.83x    frame=  189 fps=181 q=-0.0 size=N/A time=00:00:07.88 bitrate=N/A speed=7.56x    frame=  293 fps=189 q=-0.0 size=N/A time=00:00:12.22 bitrate=N/A speed=7.87x    frame=  395 fps=190 q=-0.0 size=N/A time=00:00:16.47 bitrate=N/A speed=7.95x    frame=  497 fps=192 q=-0.0 size=N/A time=00:00:20.72 bitrate=N/A speed=8.03x    frame=  597 fps=192 q=-0.0 size=N/A time=00:00:24.89 bitrate=N/A speed=8.02x    frame=  696 fps=193 q=-0.0 size=N/A time=00:00:29.02 bitrate=N/A speed=8.03x    frame=  780 fps=189 q=-0.0 size=N/A time=00:00:32.53 bitrate=N/A speed=7.89x    frame=  895 fps=193 q=-0.0 size=N/A time=00:00:37.32 bitrate=N/A speed=8.03x    frame=  993 fps=192 q=-0.0 size=N/A time=00:00:41.41 bitrate=N/A speed=8.01x    frame= 1104 fps=194 q=-0.0 size=N/A time=00:00:46.04 bitrate=N/A speed=8.08x    frame= 1203 fps=194 q=-0.0 size=N/A time=00:00:50.17 bitrate=N/A speed=8.09x    frame= 1302 fps=193 q=-0.0 size=N/A time=00:00:54.30 bitrate=N/A speed=8.07x    frame= 1408 fps=194 q=-0.0 size=N/A time=00:00:58.72 bitrate=N/A speed=8.11x    frame= 1509 fps=195 q=-0.0 size=N/A time=00:01:02.93 bitrate=N/A speed=8.12x    frame= 1611 fps=195 q=-0.0 size=N/A time=00:01:07.19 bitrate=N/A speed=8.12x    frame= 1706 fps=194 q=-0.0 size=N/A time=00:01:11.15 bitrate=N/A speed= 8.1x    frame= 1802 fps=194 q=-0.0 size=N/A time=00:01:15.15 bitrate=N/A speed=8.08x    frame= 1889 fps=192 q=-0.0 size=N/A time=00:01:18.78 bitrate=N/A speed=8.02x    frame= 1992 fps=193 q=-0.0 size=N/A time=00:01:23.08 bitrate=N/A speed=8.04x    frame= 2090 fps=193 q=-0.0 size=N/A time=00:01:27.17 bitrate=N/A speed=8.03x    frame= 2189 fps=193 q=-0.0 size=N/A time=00:01:31.29 bitrate=N/A speed=8.03x    frame= 2276 fps=192 q=-0.0 size=N/A time=00:01:34.92 bitrate=N/A speed=7.99x    frame= 2369 fps=191 q=-0.0 size=N/A time=00:01:38.80 bitrate=N/A speed=7.97x    frame= 2460 fps=191 q=-0.0 size=N/A time=00:01:42.60 bitrate=N/A speed=7.95x    frame= 2545 fps=190 q=-0.0 size=N/A time=00:01:46.14 bitrate=N/A speed=7.91x    frame= 2653 fps=190 q=-0.0 size=N/A time=00:01:50.65 bitrate=N/A speed=7.93x    frame= 2750 fps=190 q=-0.0 size=N/A time=00:01:54.69 bitrate=N/A speed=7.93x    frame= 2854 fps=191 q=-0.0 size=N/A time=00:01:59.03 bitrate=N/A speed=7.95x    frame= 2940 fps=190 q=-0.0 size=N/A time=00:02:02.62 bitrate=N/A speed=7.92x    frame= 3054 fps=191 q=-0.0 size=N/A time=00:02:07.37 bitrate=N/A speed=7.96x    frame= 3153 fps=191 q=-0.0 size=N/A time=00:02:11.50 bitrate=N/A speed=7.96x    frame= 3255 fps=191 q=-0.0 size=N/A time=00:02:15.76 bitrate=N/A speed=7.96x    frame= 3353 fps=191 q=-0.0 size=N/A time=00:02:19.84 bitrate=N/A speed=7.97x    frame= 3441 fps=190 q=-0.0 size=N/A time=00:02:23.51 bitrate=N/A speed=7.94x    frame= 3553 fps=191 q=-0.0 size=N/A time=00:02:28.18 bitrate=N/A speed=7.97x    frame= 3657 fps=191 q=-0.0 size=N/A time=00:02:32.52 bitrate=N/A speed=7.98x    frame= 3755 fps=191 q=-0.0 size=N/A time=00:02:36.61 bitrate=N/A speed=7.98x    frame= 3857 fps=192 q=-0.0 size=N/A time=00:02:40.86 bitrate=N/A speed=7.99x    frame= 3950 fps=191 q=-0.0 size=N/A time=00:02:44.74 bitrate=N/A speed=7.98x    frame= 4062 fps=192 q=-0.0 size=N/A time=00:02:49.41 bitrate=N/A speed=   8x    frame= 4162 fps=192 q=-0.0 size=N/A time=00:02:53.59 bitrate=N/A speed=8.01x    frame= 4263 fps=192 q=-0.0 size=N/A time=00:02:57.80 bitrate=N/A speed=8.01x    frame= 4362 fps=192 q=-0.0 size=N/A time=00:03:01.93 bitrate=N/A speed=8.01x    frame= 4470 fps=192 q=-0.0 size=N/A time=00:03:06.43 bitrate=N/A speed=8.02x    frame= 4572 fps=193 q=-0.0 size=N/A time=00:03:10.69 bitrate=N/A speed=8.03x    frame= 4670 fps=192 q=-0.0 size=N/A time=00:03:14.77 bitrate=N/A speed=8.03x    frame= 4769 fps=193 q=-0.0 size=N/A time=00:03:18.90 bitrate=N/A speed=8.03x    frame= 4881 fps=193 q=-0.0 size=N/A time=00:03:23.57 bitrate=N/A speed=8.05x    frame= 4984 fps=193 q=-0.0 size=N/A time=00:03:27.87 bitrate=N/A speed=8.06x    frame= 5085 fps=193 q=-0.0 size=N/A time=00:03:32.08 bitrate=N/A speed=8.06x    frame= 5181 fps=193 q=-0.0 size=N/A time=00:03:36.09 bitrate=N/A speed=8.05x    frame= 5278 fps=193 q=-0.0 size=N/A time=00:03:40.13 bitrate=N/A speed=8.05x    frame= 5389 fps=193 q=-0.0 size=N/A time=00:03:44.76 bitrate=N/A speed=8.06x    frame= 5489 fps=193 q=-0.0 size=N/A time=00:03:48.93 bitrate=N/A speed=8.07x    frame= 5578 fps=193 q=-0.0 size=N/A time=00:03:52.64 bitrate=N/A speed=8.05x    frame= 5692 fps=193 q=-0.0 size=N/A time=00:03:57.40 bitrate=N/A speed=8.07x    frame= 5791 fps=194 q=-0.0 size=N/A time=00:04:01.53 bitrate=N/A speed=8.07x    frame= 5888 fps=193 q=-0.0 size=N/A time=00:04:05.57 bitrate=N/A speed=8.07x    frame= 5991 fps=194 q=-0.0 size=N/A time=00:04:09.87 bitrate=N/A speed=8.07x    frame= 6091 fps=194 q=-0.0 size=N/A time=00:04:14.04 bitrate=N/A speed=8.07x    frame= 6194 fps=194 q=-0.0 size=N/A time=00:04:18.34 bitrate=N/A speed=8.07x    frame= 6294 fps=194 q=-0.0 size=N/A time=00:04:22.51 bitrate=N/A speed=8.08x    frame= 6396 fps=194 q=-0.0 size=N/A time=00:04:26.76 bitrate=N/A speed=8.08x    frame= 6497 fps=194 q=-0.0 size=N/A time=00:04:30.97 bitrate=N/A speed=8.08x    frame= 6600 fps=194 q=-0.0 size=N/A time=00:04:35.27 bitrate=N/A speed=8.08x    frame= 6703 fps=194 q=-0.0 size=N/A time=00:04:39.57 bitrate=N/A speed=8.09x    frame= 6806 fps=194 q=-0.0 size=N/A time=00:04:43.86 bitrate=N/A speed=8.09x    frame= 6906 fps=194 q=-0.0 size=N/A time=00:04:48.03 bitrate=N/A speed=8.09x    frame= 7009 fps=194 q=-0.0 size=N/A time=00:04:52.33 bitrate=N/A speed=8.09x    frame= 7110 fps=194 q=-0.0 size=N/A time=00:04:56.54 bitrate=N/A speed=8.09x    frame= 7203 fps=194 q=-0.0 size=N/A time=00:05:00.42 bitrate=N/A speed=8.09x    frame= 7312 fps=194 q=-0.0 size=N/A time=00:05:04.97 bitrate=N/A speed= 8.1x    frame= 7408 fps=194 q=-0.0 size=N/A time=00:05:08.97 bitrate=N/A speed=8.09x    frame= 7509 fps=194 q=-0.0 size=N/A time=00:05:13.18 bitrate=N/A speed= 8.1x    frame= 7610 fps=194 q=-0.0 size=N/A time=00:05:17.40 bitrate=N/A speed=8.09x    frame= 7714 fps=194 q=-0.0 size=N/A time=00:05:21.73 bitrate=N/A speed= 8.1x    frame= 7811 fps=194 q=-0.0 size=N/A time=00:05:25.78 bitrate=N/A speed=8.09x    frame= 7912 fps=194 q=-0.0 size=N/A time=00:05:29.99 bitrate=N/A speed= 8.1x    frame= 8010 fps=194 q=-0.0 size=N/A time=00:05:34.08 bitrate=N/A speed= 8.1x    frame= 8114 fps=194 q=-0.0 size=N/A time=00:05:38.42 bitrate=N/A speed= 8.1x    frame= 8212 fps=194 q=-0.0 size=N/A time=00:05:42.50 bitrate=N/A speed= 8.1x    frame= 8310 fps=194 q=-0.0 size=N/A time=00:05:46.59 bitrate=N/A speed= 8.1x    frame= 8416 fps=194 q=-0.0 size=N/A time=00:05:51.01 bitrate=N/A speed= 8.1x    frame= 8515 fps=194 q=-0.0 size=N/A time=00:05:55.14 bitrate=N/A speed= 8.1x    frame= 8606 fps=194 q=-0.0 size=N/A time=00:05:58.94 bitrate=N/A speed=8.09x    frame= 8716 fps=194 q=-0.0 size=N/A time=00:06:03.52 bitrate=N/A speed= 8.1x    frame= 8819 fps=194 q=-0.0 size=N/A time=00:06:07.82 bitrate=N/A speed= 8.1x    frame= 8914 fps=194 q=-0.0 size=N/A time=00:06:11.78 bitrate=N/A speed= 8.1x    frame= 9016 fps=194 q=-0.0 size=N/A time=00:06:16.04 bitrate=N/A speed= 8.1x    frame= 9118 fps=194 q=-0.0 size=N/A time=00:06:20.29 bitrate=N/A speed= 8.1x    frame= 9219 fps=194 q=-0.0 size=N/A time=00:06:24.50 bitrate=N/A speed= 8.1x    frame= 9317 fps=194 q=-0.0 size=N/A time=00:06:28.59 bitrate=N/A speed= 8.1x    frame= 9406 fps=194 q=-0.0 size=N/A time=00:06:32.30 bitrate=N/A speed=8.09x    frame= 9518 fps=194 q=-0.0 size=N/A time=00:06:36.97 bitrate=N/A speed= 8.1x    frame= 9617 fps=194 q=-0.0 size=N/A time=00:06:41.10 bitrate=N/A speed= 8.1x    frame= 9721 fps=194 q=-0.0 size=N/A time=00:06:45.44 bitrate=N/A speed= 8.1x    frame= 9807 fps=194 q=-0.0 size=N/A time=00:06:49.03 bitrate=N/A speed=8.09x    frame= 9926 fps=194 q=-0.0 size=N/A time=00:06:53.99 bitrate=N/A speed=8.11x    frame=10029 fps=194 q=-0.0 size=N/A time=00:06:58.29 bitrate=N/A speed=8.11x    frame=10123 fps=194 q=-0.0 size=N/A time=00:07:02.21 bitrate=N/A speed= 8.1x    frame=10229 fps=194 q=-0.0 size=N/A time=00:07:06.63 bitrate=N/A speed=8.11x    frame=10326 fps=194 q=-0.0 size=N/A time=00:07:10.68 bitrate=N/A speed= 8.1x    frame=10430 fps=194 q=-0.0 size=N/A time=00:07:15.01 bitrate=N/A speed=8.11x    frame=10528 fps=194 q=-0.0 size=N/A time=00:07:19.10 bitrate=N/A speed= 8.1x    frame=10622 fps=194 q=-0.0 size=N/A time=00:07:23.02 bitrate=N/A speed= 8.1x    frame=10725 fps=194 q=-0.0 size=N/A time=00:07:27.32 bitrate=N/A speed= 8.1x    frame=10831 fps=194 q=-0.0 size=N/A time=00:07:31.74 bitrate=N/A speed=8.11x    frame=10932 fps=194 q=-0.0 size=N/A time=00:07:35.95 bitrate=N/A speed=8.11x    frame=11035 fps=194 q=-0.0 size=N/A time=00:07:40.25 bitrate=N/A speed=8.11x    frame=11134 fps=194 q=-0.0 size=N/A time=00:07:44.38 bitrate=N/A speed=8.11x    frame=11235 fps=194 q=-0.0 size=N/A time=00:07:48.59 bitrate=N/A speed=8.11x    frame=11337 fps=194 q=-0.0 size=N/A time=00:07:52.84 bitrate=N/A speed=8.11x    frame=11433 fps=194 q=-0.0 size=N/A time=00:07:56.85 bitrate=N/A speed=8.11x    frame=11534 fps=194 q=-0.0 size=N/A time=00:08:01.06 bitrate=N/A speed=8.11x    frame=11637 fps=194 q=-0.0 size=N/A time=00:08:05.35 bitrate=N/A speed=8.11x    frame=11731 fps=194 q=-0.0 size=N/A time=00:08:09.28 bitrate=N/A speed=8.11x    frame=11838 fps=194 q=-0.0 size=N/A time=00:08:13.74 bitrate=N/A speed=8.11x    frame=11934 fps=194 q=-0.0 size=N/A time=00:08:17.74 bitrate=N/A speed=8.11x    frame=12039 fps=194 q=-0.0 size=N/A time=00:08:22.12 bitrate=N/A speed=8.11x    frame=12138 fps=194 q=-0.0 size=N/A time=00:08:26.25 bitrate=N/A speed=8.11x    frame=12242 fps=194 q=-0.0 size=N/A time=00:08:30.59 bitrate=N/A speed=8.11x    frame=12332 fps=194 q=-0.0 size=N/A time=00:08:34.34 bitrate=N/A speed= 8.1x    frame=12428 fps=194 q=-0.0 size=N/A time=00:08:38.35 bitrate=N/A speed= 8.1x    frame=12547 fps=195 q=-0.0 size=N/A time=00:08:43.31 bitrate=N/A speed=8.11x    frame=12645 fps=194 q=-0.0 size=N/A time=00:08:47.40 bitrate=N/A speed=8.11x    frame=12746 fps=194 q=-0.0 size=N/A time=00:08:51.61 bitrate=N/A speed=8.11x    frame=12847 fps=194 q=-0.0 size=N/A time=00:08:55.82 bitrate=N/A speed=8.11x    frame=12945 fps=194 q=-0.0 size=N/A time=00:08:59.91 bitrate=N/A speed=8.11x    frame=13040 fps=194 q=-0.0 size=N/A time=00:09:03.87 bitrate=N/A speed=8.11x    frame=13151 fps=195 q=-0.0 size=N/A time=00:09:08.50 bitrate=N/A speed=8.11x    frame=13248 fps=194 q=-0.0 size=N/A time=00:09:12.55 bitrate=N/A speed=8.11x    frame=13350 fps=195 q=-0.0 size=N/A time=00:09:16.80 bitrate=N/A speed=8.11x    frame=13451 fps=195 q=-0.0 size=N/A time=00:09:21.01 bitrate=N/A speed=8.11x    frame=13553 fps=195 q=-0.0 size=N/A time=00:09:25.27 bitrate=N/A speed=8.11x    frame=13655 fps=195 q=-0.0 size=N/A time=00:09:29.52 bitrate=N/A speed=8.11x    frame=13756 fps=195 q=-0.0 size=N/A time=00:09:33.73 bitrate=N/A speed=8.12x    frame=13856 fps=195 q=-0.0 size=N/A time=00:09:37.91 bitrate=N/A speed=8.12x    frame=13956 fps=195 q=-0.0 size=N/A time=00:09:42.08 bitrate=N/A speed=8.11x    frame=14061 fps=195 q=-0.0 size=N/A time=00:09:46.46 bitrate=N/A speed=8.12x    frame=14159 fps=195 q=-0.0 size=N/A time=00:09:50.54 bitrate=N/A speed=8.12x    frame=14261 fps=195 q=-0.0 size=N/A time=00:09:54.80 bitrate=N/A speed=8.12x    frame=14358 fps=195 q=-0.0 size=N/A time=00:09:58.84 bitrate=N/A speed=8.12x    frame=14461 fps=195 q=-0.0 size=N/A time=00:10:03.14 bitrate=N/A speed=8.12x    frame=14547 fps=194 q=-0.0 size=N/A time=00:10:06.73 bitrate=N/A speed=8.11x    frame=14654 fps=195 q=-0.0 size=N/A time=00:10:11.19 bitrate=N/A speed=8.11x    frame=14765 fps=195 q=-0.0 size=N/A time=00:10:15.82 bitrate=N/A speed=8.12x    frame=14865 fps=195 q=-0.0 size=N/A time=00:10:19.99 bitrate=N/A speed=8.12x    frame=14964 fps=195 q=-0.0 size=N/A time=00:10:24.12 bitrate=N/A speed=8.12x    frame=15067 fps=195 q=-0.0 size=N/A time=00:10:28.41 bitrate=N/A speed=8.12x    frame=15169 fps=195 q=-0.0 size=N/A time=00:10:32.67 bitrate=N/A speed=8.12x    frame=15272 fps=195 q=-0.0 size=N/A time=00:10:36.96 bitrate=N/A speed=8.12x    frame=15372 fps=195 q=-0.0 size=N/A time=00:10:41.14 bitrate=N/A speed=8.12x    frame=15474 fps=195 q=-0.0 size=N/A time=00:10:45.39 bitrate=N/A speed=8.12x    frame=15573 fps=195 q=-0.0 size=N/A time=00:10:49.52 bitrate=N/A speed=8.12x    frame=15676 fps=195 q=-0.0 size=N/A time=00:10:53.81 bitrate=N/A speed=8.12x    frame=15776 fps=195 q=-0.0 size=N/A time=00:10:57.99 bitrate=N/A speed=8.12x    frame=15875 fps=195 q=-0.0 size=N/A time=00:11:02.11 bitrate=N/A speed=8.12x    frame=15977 fps=195 q=-0.0 size=N/A time=00:11:06.37 bitrate=N/A speed=8.12x    frame=16079 fps=195 q=-0.0 size=N/A time=00:11:10.62 bitrate=N/A speed=8.12x    frame=16180 fps=195 q=-0.0 size=N/A time=00:11:14.84 bitrate=N/A speed=8.12x    frame=16283 fps=195 q=-0.0 size=N/A time=00:11:19.13 bitrate=N/A speed=8.12x    frame=16382 fps=195 q=-0.0 size=N/A time=00:11:23.26 bitrate=N/A speed=8.12x    frame=16485 fps=195 q=-0.0 size=N/A time=00:11:27.56 bitrate=N/A speed=8.13x    frame=16588 fps=195 q=-0.0 size=N/A time=00:11:31.85 bitrate=N/A speed=8.13x    frame=16681 fps=195 q=-0.0 size=N/A time=00:11:35.73 bitrate=N/A speed=8.12x    frame=16790 fps=195 q=-0.0 size=N/A time=00:11:40.28 bitrate=N/A speed=8.13x    frame=16895 fps=195 q=-0.0 size=N/A time=00:11:44.66 bitrate=N/A speed=8.13x    frame=16999 fps=195 q=-0.0 size=N/A time=00:11:48.99 bitrate=N/A speed=8.13x    frame=17101 fps=195 q=-0.0 size=N/A time=00:11:53.25 bitrate=N/A speed=8.13x    frame=17188 fps=195 q=-0.0 size=N/A time=00:11:56.88 bitrate=N/A speed=8.13x    frame=17303 fps=195 q=-0.0 size=N/A time=00:12:01.67 bitrate=N/A speed=8.13x    frame=17392 fps=195 q=-0.0 size=N/A time=00:12:05.39 bitrate=N/A speed=8.13x    frame=17505 fps=195 q=-0.0 size=N/A time=00:12:10.10 bitrate=N/A speed=8.13x    frame=17597 fps=195 q=-0.0 size=N/A time=00:12:13.94 bitrate=N/A speed=8.13x    frame=17704 fps=195 q=-0.0 size=N/A time=00:12:18.40 bitrate=N/A speed=8.13x    frame=17802 fps=195 q=-0.0 size=N/A time=00:12:22.49 bitrate=N/A speed=8.13x    frame=17898 fps=195 q=-0.0 size=N/A time=00:12:26.49 bitrate=N/A speed=8.13x    frame=18002 fps=195 q=-0.0 size=N/A time=00:12:30.83 bitrate=N/A speed=8.13x    frame=18099 fps=195 q=-0.0 size=N/A time=00:12:34.87 bitrate=N/A speed=8.13x    frame=18204 fps=195 q=-0.0 size=N/A time=00:12:39.25 bitrate=N/A speed=8.13x    frame=18303 fps=195 q=-0.0 size=N/A time=00:12:43.38 bitrate=N/A speed=8.13x    frame=18402 fps=195 q=-0.0 size=N/A time=00:12:47.51 bitrate=N/A speed=8.13x    frame=18504 fps=195 q=-0.0 size=N/A time=00:12:51.77 bitrate=N/A speed=8.13x    frame=18609 fps=195 q=-0.0 size=N/A time=00:12:56.15 bitrate=N/A speed=8.13x    frame=18705 fps=195 q=-0.0 size=N/A time=00:13:00.15 bitrate=N/A speed=8.13x    frame=18813 fps=195 q=-0.0 size=N/A time=00:13:04.65 bitrate=N/A speed=8.13x    frame=18914 fps=195 q=-0.0 size=N/A time=00:13:08.87 bitrate=N/A speed=8.13x    frame=19015 fps=195 q=-0.0 size=N/A time=00:13:13.08 bitrate=N/A speed=8.13x    frame=19113 fps=195 q=-0.0 size=N/A time=00:13:17.17 bitrate=N/A speed=8.13x    frame=19219 fps=195 q=-0.0 size=N/A time=00:13:21.59 bitrate=N/A speed=8.14x    frame=19323 fps=195 q=-0.0 size=N/A time=00:13:25.93 bitrate=N/A speed=8.14x    frame=19420 fps=195 q=-0.0 size=N/A time=00:13:29.97 bitrate=N/A speed=8.13x    frame=19527 fps=195 q=-0.0 size=N/A time=00:13:34.43 bitrate=N/A speed=8.14x    frame=19626 fps=195 q=-0.0 size=N/A time=00:13:38.56 bitrate=N/A speed=8.14x    frame=19727 fps=195 q=-0.0 size=N/A time=00:13:42.78 bitrate=N/A speed=8.14x    frame=19827 fps=195 q=-0.0 size=N/A time=00:13:46.95 bitrate=N/A speed=8.14x    frame=19913 fps=195 q=-0.0 size=N/A time=00:13:50.53 bitrate=N/A speed=8.13x    frame=20034 fps=195 q=-0.0 size=N/A time=00:13:55.58 bitrate=N/A speed=8.14x    frame=20135 fps=195 q=-0.0 size=N/A time=00:13:59.79 bitrate=N/A speed=8.14x    frame=20237 fps=195 q=-0.0 size=N/A time=00:14:04.05 bitrate=N/A speed=8.14x    frame=20332 fps=195 q=-0.0 size=N/A time=00:14:08.01 bitrate=N/A speed=8.14x    frame=20428 fps=195 q=-0.0 size=N/A time=00:14:12.01 bitrate=N/A speed=8.14x    frame=20532 fps=195 q=-0.0 size=N/A time=00:14:16.35 bitrate=N/A speed=8.14x    frame=20631 fps=195 q=-0.0 size=N/A time=00:14:20.48 bitrate=N/A speed=8.14x    frame=20735 fps=195 q=-0.0 size=N/A time=00:14:24.82 bitrate=N/A speed=8.14x    frame=20836 fps=195 q=-0.0 size=N/A time=00:14:29.03 bitrate=N/A speed=8.14x    frame=20940 fps=195 q=-0.0 size=N/A time=00:14:33.37 bitrate=N/A speed=8.14x    frame=21040 fps=195 q=-0.0 size=N/A time=00:14:37.54 bitrate=N/A speed=8.14x    frame=21134 fps=195 q=-0.0 size=N/A time=00:14:41.46 bitrate=N/A speed=8.14x    frame=21242 fps=195 q=-0.0 size=N/A time=00:14:45.96 bitrate=N/A speed=8.14x    frame=21341 fps=195 q=-0.0 size=N/A time=00:14:50.09 bitrate=N/A speed=8.14x    frame=21440 fps=195 q=-0.0 size=N/A time=00:14:54.22 bitrate=N/A speed=8.14x    frame=21546 fps=195 q=-0.0 size=N/A time=00:14:58.64 bitrate=N/A speed=8.14x    frame=21645 fps=195 q=-0.0 size=N/A time=00:15:02.77 bitrate=N/A speed=8.14x    frame=21744 fps=195 q=-0.0 size=N/A time=00:15:06.90 bitrate=N/A speed=8.14x    frame=21840 fps=195 q=-0.0 size=N/A time=00:15:10.91 bitrate=N/A speed=8.14x    frame=21939 fps=195 q=-0.0 size=N/A time=00:15:15.03 bitrate=N/A speed=8.14x    frame=22040 fps=195 q=-0.0 size=N/A time=00:15:19.25 bitrate=N/A speed=8.14x    frame=22142 fps=195 q=-0.0 size=N/A time=00:15:23.50 bitrate=N/A speed=8.14x    frame=22243 fps=195 q=-0.0 size=N/A time=00:15:27.71 bitrate=N/A speed=8.14x    frame=22340 fps=195 q=-0.0 size=N/A time=00:15:31.76 bitrate=N/A speed=8.14x    frame=22451 fps=195 q=-0.0 size=N/A time=00:15:36.39 bitrate=N/A speed=8.14x    frame=22550 fps=195 q=-0.0 size=N/A time=00:15:40.52 bitrate=N/A speed=8.14x    frame=22651 fps=195 q=-0.0 size=N/A time=00:15:44.73 bitrate=N/A speed=8.14x    frame=22753 fps=195 q=-0.0 size=N/A time=00:15:48.98 bitrate=N/A speed=8.14x    frame=22847 fps=195 q=-0.0 size=N/A time=00:15:52.91 bitrate=N/A speed=8.14x    frame=22948 fps=195 q=-0.0 size=N/A time=00:15:57.12 bitrate=N/A speed=8.14x    frame=23057 fps=195 q=-0.0 size=N/A time=00:16:01.66 bitrate=N/A speed=8.14x    frame=23158 fps=195 q=-0.0 size=N/A time=00:16:05.88 bitrate=N/A speed=8.14x    frame=23259 fps=195 q=-0.0 size=N/A time=00:16:10.09 bitrate=N/A speed=8.14x    frame=23362 fps=195 q=-0.0 size=N/A time=00:16:14.39 bitrate=N/A speed=8.14x    frame=23456 fps=195 q=-0.0 size=N/A time=00:16:18.31 bitrate=N/A speed=8.14x    frame=23563 fps=195 q=-0.0 size=N/A time=00:16:22.77 bitrate=N/A speed=8.14x    frame=23652 fps=195 q=-0.0 size=N/A time=00:16:26.48 bitrate=N/A speed=8.14x    frame=23765 fps=195 q=-0.0 size=N/A time=00:16:31.19 bitrate=N/A speed=8.14x    frame=23866 fps=195 q=-0.0 size=N/A time=00:16:35.41 bitrate=N/A speed=8.14x    frame=23966 fps=195 q=-0.0 size=N/A time=00:16:39.58 bitrate=N/A speed=8.14x    frame=24066 fps=195 q=-0.0 size=N/A time=00:16:43.75 bitrate=N/A speed=8.14x    frame=24169 fps=195 q=-0.0 size=N/A time=00:16:48.04 bitrate=N/A speed=8.14x    frame=24268 fps=195 q=-0.0 size=N/A time=00:16:52.17 bitrate=N/A speed=8.14x    frame=24368 fps=195 q=-0.0 size=N/A time=00:16:56.34 bitrate=N/A speed=8.14x    frame=24467 fps=195 q=-0.0 size=N/A time=00:17:00.47 bitrate=N/A speed=8.14x    frame=24571 fps=195 q=-0.0 size=N/A time=00:17:04.81 bitrate=N/A speed=8.14x    frame=24671 fps=195 q=-0.0 size=N/A time=00:17:08.98 bitrate=N/A speed=8.14x    frame=24771 fps=195 q=-0.0 size=N/A time=00:17:13.15 bitrate=N/A speed=8.14x    frame=24868 fps=195 q=-0.0 size=N/A time=00:17:17.20 bitrate=N/A speed=8.14x    frame=24974 fps=195 q=-0.0 size=N/A time=00:17:21.62 bitrate=N/A speed=8.14x    frame=25073 fps=195 q=-0.0 size=N/A time=00:17:25.75 bitrate=N/A speed=8.14x    frame=25170 fps=195 q=-0.0 size=N/A time=00:17:29.79 bitrate=N/A speed=8.14x    frame=25275 fps=195 q=-0.0 size=N/A time=00:17:34.17 bitrate=N/A speed=8.14x    frame=25371 fps=195 q=-0.0 size=N/A time=00:17:38.18 bitrate=N/A speed=8.14x    frame=25478 fps=195 q=-0.0 size=N/A time=00:17:42.64 bitrate=N/A speed=8.14x    frame=25578 fps=195 q=-0.0 size=N/A time=00:17:46.81 bitrate=N/A speed=8.14x    frame=25675 fps=195 q=-0.0 size=N/A time=00:17:50.86 bitrate=N/A speed=8.14x    frame=25765 fps=195 q=-0.0 size=N/A time=00:17:54.61 bitrate=N/A speed=8.14x    frame=25872 fps=195 q=-0.0 size=N/A time=00:17:59.07 bitrate=N/A speed=8.14x    frame=25974 fps=195 q=-0.0 size=N/A time=00:18:03.33 bitrate=N/A speed=8.14x    frame=26064 fps=195 q=-0.0 size=N/A time=00:18:07.08 bitrate=N/A speed=8.14x    frame=26176 fps=195 q=-0.0 size=N/A time=00:18:11.75 bitrate=N/A speed=8.14x    frame=26275 fps=195 q=-0.0 size=N/A time=00:18:15.88 bitrate=N/A speed=8.14x    frame=26375 fps=195 q=-0.0 size=N/A time=00:18:20.05 bitrate=N/A speed=8.14x    frame=26471 fps=195 q=-0.0 size=N/A time=00:18:24.06 bitrate=N/A speed=8.14x    frame=26560 fps=195 q=-0.0 size=N/A time=00:18:27.77 bitrate=N/A speed=8.13x    frame=26666 fps=195 q=-0.0 size=N/A time=00:18:32.19 bitrate=N/A speed=8.13x    frame=26761 fps=195 q=-0.0 size=N/A time=00:18:36.15 bitrate=N/A speed=8.13x    frame=26871 fps=195 q=-0.0 size=N/A time=00:18:40.74 bitrate=N/A speed=8.13x    frame=26973 fps=195 q=-0.0 size=N/A time=00:18:44.99 bitrate=N/A speed=8.13x    frame=27068 fps=195 q=-0.0 size=N/A time=00:18:48.96 bitrate=N/A speed=8.13x    frame=27158 fps=195 q=-0.0 size=N/A time=00:18:52.71 bitrate=N/A speed=8.13x    frame=27269 fps=195 q=-0.0 size=N/A time=00:18:57.34 bitrate=N/A speed=8.13x    frame=27366 fps=195 q=-0.0 size=N/A time=00:19:01.39 bitrate=N/A speed=8.13x    frame=27456 fps=195 q=-0.0 size=N/A time=00:19:05.14 bitrate=N/A speed=8.13x    frame=27562 fps=195 q=-0.0 size=N/A time=00:19:09.56 bitrate=N/A speed=8.13x    frame=27656 fps=195 q=-0.0 size=N/A time=00:19:13.48 bitrate=N/A speed=8.13x    frame=27760 fps=195 q=-0.0 size=N/A time=00:19:17.82 bitrate=N/A speed=8.13x    frame=27856 fps=195 q=-0.0 size=N/A time=00:19:21.82 bitrate=N/A speed=8.13x    frame=27960 fps=195 q=-0.0 size=N/A time=00:19:26.16 bitrate=N/A speed=8.13x    frame=28059 fps=195 q=-0.0 size=N/A time=00:19:30.29 bitrate=N/A speed=8.13x    frame=28157 fps=195 q=-0.0 size=N/A time=00:19:34.38 bitrate=N/A speed=8.13x    frame=28258 fps=195 q=-0.0 size=N/A time=00:19:38.59 bitrate=N/A speed=8.13x    frame=28360 fps=195 q=-0.0 size=N/A time=00:19:42.84 bitrate=N/A speed=8.13x    frame=28451 fps=195 q=-0.0 size=N/A time=00:19:46.64 bitrate=N/A speed=8.13x    frame=28569 fps=195 q=-0.0 size=N/A time=00:19:51.56 bitrate=N/A speed=8.13x    frame=28673 fps=195 q=-0.0 size=N/A time=00:19:55.90 bitrate=N/A speed=8.13x    frame=28772 fps=195 q=-0.0 size=N/A time=00:20:00.03 bitrate=N/A speed=8.13x    frame=28873 fps=195 q=-0.0 size=N/A time=00:20:04.24 bitrate=N/A speed=8.13x    frame=28968 fps=195 q=-0.0 size=N/A time=00:20:08.20 bitrate=N/A speed=8.13x    frame=29077 fps=195 q=-0.0 size=N/A time=00:20:12.75 bitrate=N/A speed=8.13x    frame=29177 fps=195 q=-0.0 size=N/A time=00:20:16.92 bitrate=N/A speed=8.13x    frame=29271 fps=195 q=-0.0 size=N/A time=00:20:20.84 bitrate=N/A speed=8.13x    frame=29374 fps=195 q=-0.0 size=N/A time=00:20:25.14 bitrate=N/A speed=8.13x    frame=29471 fps=195 q=-0.0 size=N/A time=00:20:29.18 bitrate=N/A speed=8.13x    frame=29571 fps=195 q=-0.0 size=N/A time=00:20:33.35 bitrate=N/A speed=8.13x    frame=29669 fps=195 q=-0.0 size=N/A time=00:20:37.44 bitrate=N/A speed=8.13x    frame=29770 fps=195 q=-0.0 size=N/A time=00:20:41.65 bitrate=N/A speed=8.13x    frame=29856 fps=195 q=-0.0 size=N/A time=00:20:45.24 bitrate=N/A speed=8.13x    frame=29964 fps=195 q=-0.0 size=N/A time=00:20:49.74 bitrate=N/A speed=8.13x    frame=30066 fps=195 q=-0.0 size=N/A time=00:20:54.00 bitrate=N/A speed=8.13x    frame=30162 fps=195 q=-0.0 size=N/A time=00:20:58.00 bitrate=N/A speed=8.13x    frame=30266 fps=195 q=-0.0 size=N/A time=00:21:02.34 bitrate=N/A speed=8.13x    frame=30362 fps=195 q=-0.0 size=N/A time=00:21:06.34 bitrate=N/A speed=8.13x    frame=30467 fps=195 q=-0.0 size=N/A time=00:21:10.72 bitrate=N/A speed=8.13x    frame=30567 fps=195 q=-0.0 size=N/A time=00:21:14.89 bitrate=N/A speed=8.13x    frame=30665 fps=195 q=-0.0 size=N/A time=00:21:18.98 bitrate=N/A speed=8.13x    frame=30769 fps=195 q=-0.0 size=N/A time=00:21:23.32 bitrate=N/A speed=8.13x    frame=30869 fps=195 q=-0.0 size=N/A time=00:21:27.49 bitrate=N/A speed=8.13x    frame=30965 fps=195 q=-0.0 size=N/A time=00:21:31.49 bitrate=N/A speed=8.13x    frame=31064 fps=195 q=-0.0 size=N/A time=00:21:35.62 bitrate=N/A speed=8.13x    frame=31170 fps=195 q=-0.0 size=N/A time=00:21:40.04 bitrate=N/A speed=8.13x    frame=31272 fps=195 q=-0.0 size=N/A time=00:21:44.30 bitrate=N/A speed=8.13x    frame=31362 fps=195 q=-0.0 size=N/A time=00:21:48.05 bitrate=N/A speed=8.13x    frame=31476 fps=195 q=-0.0 size=N/A time=00:21:52.81 bitrate=N/A speed=8.13x    frame=31572 fps=195 q=-0.0 size=N/A time=00:21:56.81 bitrate=N/A speed=8.13x    frame=31672 fps=195 q=-0.0 size=N/A time=00:22:00.98 bitrate=N/A speed=8.13x    frame=31773 fps=195 q=-0.0 size=N/A time=00:22:05.19 bitrate=N/A speed=8.13x    frame=31879 fps=195 q=-0.0 size=N/A time=00:22:09.61 bitrate=N/A speed=8.13x    frame=31975 fps=195 q=-0.0 size=N/A time=00:22:13.62 bitrate=N/A speed=8.13x    frame=32072 fps=195 q=-0.0 size=N/A time=00:22:17.66 bitrate=N/A speed=8.13x    frame=32178 fps=195 q=-0.0 size=N/A time=00:22:22.09 bitrate=N/A speed=8.13x    frame=32274 fps=195 q=-0.0 size=N/A time=00:22:26.09 bitrate=N/A speed=8.13x    frame=32383 fps=195 q=-0.0 size=N/A time=00:22:30.64 bitrate=N/A speed=8.13x    frame=32489 fps=195 q=-0.0 size=N/A time=00:22:35.06 bitrate=N/A speed=8.13x    frame=32586 fps=195 q=-0.0 size=N/A time=00:22:39.10 bitrate=N/A speed=8.13x    frame=32690 fps=195 q=-0.0 size=N/A time=00:22:43.44 bitrate=N/A speed=8.13x    frame=32792 fps=195 q=-0.0 size=N/A time=00:22:47.69 bitrate=N/A speed=8.13x    frame=32891 fps=195 q=-0.0 size=N/A time=00:22:51.82 bitrate=N/A speed=8.13x    frame=32989 fps=195 q=-0.0 size=N/A time=00:22:55.91 bitrate=N/A speed=8.13x    frame=33088 fps=195 q=-0.0 size=N/A time=00:23:00.04 bitrate=N/A speed=8.13x    frame=33182 fps=195 q=-0.0 size=N/A time=00:23:03.96 bitrate=N/A speed=8.13x    frame=33270 fps=195 q=-0.0 size=N/A time=00:23:07.63 bitrate=N/A speed=8.13x    frame=33374 fps=195 q=-0.0 size=N/A time=00:23:11.97 bitrate=N/A speed=8.13x    frame=33482 fps=195 q=-0.0 size=N/A time=00:23:16.47 bitrate=N/A speed=8.13x    frame=33575 fps=195 q=-0.0 size=N/A time=00:23:20.35 bitrate=N/A speed=8.13x    frame=33677 fps=195 q=-0.0 size=N/A time=00:23:24.61 bitrate=N/A speed=8.13x    frame=33779 fps=195 q=-0.0 size=N/A time=00:23:28.86 bitrate=N/A speed=8.13x    frame=33869 fps=195 q=-0.0 size=N/A time=00:23:32.61 bitrate=N/A speed=8.12x    frame=33979 fps=195 q=-0.0 size=N/A time=00:23:37.20 bitrate=N/A speed=8.13x    [Parsed_ssim_10 @ 0000023e7154f6c0] SSIM Y:0.991958 (20.946621) U:0.994549 (22.635498) V:0.992941 (21.512873) All:0.992554 (21.280844)
[out#0/null @ 0000023e6f4e7ec0] video:14646KiB audio:266572KiB subtitle:0KiB other streams:0KiB global headers:0KiB muxing overhead: unknown
frame=34086 fps=195 q=-0.0 Lsize=N/A time=00:23:41.67 bitrate=N/A speed=8.13x    
